# xmcd
# 
# Track frame offsets:
#     150
#     18185
#     38167
#     55993
#     81026
# 
# Disc length: 1384
# 
# Revision: 0
# Processed by: cddbd v1.5.2PL0 Copyright (c) Steve Scherf et al.
# Submitted via: fre:ac v1.0.17
# 
DISCID=31056605
DTITLE=Joe Basilio - Excelsis
DYEAR=2015
DGENRE=Rock
TTITLE0=In The Rhythm
TTITLE1=Dawn
TTITLE2=Together (feat. Lari Basilio)
TTITLE3=Reborn
TTITLE4=Excelsis
EXTD=
EXTT0=
EXTT1=
EXTT2=
EXTT3=
EXTT4=
PLAYORDER=
